<svg version="1.0" xmlns="http://www.w3.org/2000/svg" width="222" height="179" viewBox="0 0 222 179" stroke="#333" fill="none" stroke-width="10" stroke-linecap="round"><path id="a" d="M47 24c33-8 48.7-9 49.55 1.5.37 6.58-11.2 9-10.6 22.6.6 13.65 18.83 16.56 26.4 16"/><use href="#a" transform="matrix(-1 0 0 1 223 0)"/><g transform="matrix(1 0 0 -1 0 179)"><use href="#a"/><use href="#a" transform="matrix(-1 0 0 1 223 0)"/></g><g transform="rotate(90 46 24)"><use href="#a"/><use href="#a" transform="matrix(-1 0 0 1 223 0)"/></g><g transform="matrix(0 1 1 0 152 -22)"><use href="#a"/><use href="#a" transform="matrix(-1 0 0 1 223 0)"/></g></svg>